# xmcd
#
# Track frame offsets:
#	150
#	22435
#	62700
#	84513
#	104871
#	122511
#	142810
#	171666
#	197995
#	224988
#	270441
#	283375
#
# Disc length: 4452 seconds
#
# Revision: 0
# Processed by: cddbd v1.5.2PL0 Copyright (c) Steve Scherf et al.
# Submitted via: EZCDAudioConverter 2.1.5.1
#
DISCID=cd11620c
DTITLE=B.B. King - Live
DYEAR=2008
DGENRE=Blues
TTITLE0=Manhattan Blues
TTITLE1=Why I Sing the Blues
TTITLE2=I Need You So
TTITLE3=Bad Case of Love
TTITLE4=Bluesman
TTITLE5=When Love Comes to Town
TTITLE6=All Over Again
TTITLE7=You Are My Sunshine
TTITLE8=Rock Me Baby
TTITLE9=Key to the Highway
TTITLE10=Thrill is Gone
TTITLE11=When The Saints Go Marching In
EXTD=
EXTT0=
EXTT1=
EXTT2=
EXTT3=
EXTT4=
EXTT5=
EXTT6=
EXTT7=
EXTT8=
EXTT9=
EXTT10=
EXTT11=
PLAYORDER=
